<svg width="32" height="32" viewBox="0 0 32 32" fill="none" xmlns="http://www.w3.org/2000/svg">
<path fill-rule="evenodd" clip-rule="evenodd" d="M3.75342 22.2895H21.3543C22.5509 21.8136 23.6425 21.1306 24.5851 20.2848H3.75342V22.2895ZM3.75342 17.1348V19.1395H25.6877C26.1984 18.525 26.6425 17.8531 27.0087 17.1348H3.75342ZM27.5113 15.9896H3.75342V13.9858H28.042C27.9285 14.678 27.7494 15.3482 27.5113 15.9896ZM3.75342 10.8377V12.8406H28.1676C28.1792 12.6354 28.1851 12.4287 28.1851 12.2206C28.1851 11.7521 28.1553 11.2905 28.0976 10.8377H3.75342ZM27.8885 9.69248H3.75342V7.68688H27.1935C27.4877 8.32439 27.7218 8.99534 27.8885 9.69248ZM3.75342 4.53785V6.54166H26.5788C26.1286 5.81175 25.5941 5.1393 24.989 4.53785H3.75342ZM23.6314 3.39263H3.75342V1.38867H17.3532C19.6934 1.38867 21.8604 2.13083 23.6314 3.39263Z" fill="#797A7E"/>
<rect x="3.75293" y="23.4346" width="12.4066" height="2.00414" fill="#797A7E"/>
<rect x="3.75293" y="26.584" width="8.58916" height="2.00414" fill="#797A7E"/>
<rect x="3.75293" y="29.7334" width="4.77175" height="2.00414" fill="#797A7E"/>
</svg>
